{
  "accessors": [
    {
      "bufferView": 1,
      "componentType": 5126,
      "count": 729,
      "max": [
        2.2000000476837158,
        2.2000000476837158,
        2.2000000476837158
      ],
      "min": [
        -2.2000000476837158,
        -2.2000000476837158,
        -2.2000000476837158
      ],
      "type": "VEC3"
    },
    {
      "bufferView": 1,
      "byteOffset": 8748,
      "componentType": 5126,
      "count": 729,
      "max": [
        0.99999719858169556,
        1,
        1
      ],
      "min": [
        -0.99999719858169556,
        -1,
        -1
      ],
      "type": "VEC3"
    },
    {
      "bufferView": 0,
      "componentType": 5125,
      "count": 4110,
      "max": [
        728
      ],
      "min": [
        0
      ],
      "type": "SCALAR"
    },
    {
      "bufferView": 1,
      "byteOffset": 17496,
      "componentType": 5126,
      "count": 183,
      "max": [
        1.9874999523162842,
        -0.39109000563621521,
        1.3534599542617798
      ],
      "min": [
        0.65275001525878906,
        -1.6452499628067017,
        -0.77566999197006226
      ],
      "type": "VEC3"
    },
    {
      "bufferView": 1,
      "byteOffset": 19692,
      "componentType": 5126,
      "count": 183,
      "max": [
        0.99958491325378418,
        0.31779745221138,
        0.96847474575042725
      ],
      "min": [
        -0.024200545623898506,
        -0.99754923582077026,
        -0.86050271987915039
      ],
      "type": "VEC3"
    },
    {
      "bufferView": 0,
      "byteOffset": 16440,
      "componentType": 5125,
      "count": 810,
      "max": [
        182
      ],
      "min": [
        0
      ],
      "type": "SCALAR"
    },
    {
      "bufferView": 1,
      "byteOffset": 21888,
      "componentType": 5126,
      "count": 180,
      "max": [
        2.0008299350738525,
        -0.74247997999191284,
        1.3776999711990356
      ],
      "min": [
        1.2986899614334106,
        -1.6656399965286255,
        -0.80422002077102661
      ],
      "type": "VEC3"
    },
    {
      "bufferView": 1,
      "byteOffset": 24048,
      "componentType": 5126,
      "count": 180,
      "max": [
        0.99488449096679688,
        0.25593698024749756,
        0.947407066822052
      ],
      "min": [
        0.044981010258197784,
        -0.99421447515487671,
        -0.81696784496307373
      ],
      "type": "VEC3"
    },
    {
      "bufferView": 0,
      "byteOffset": 19680,
      "componentType": 5125,
      "count": 540,
      "max": [
        179
      ],
      "min": [
        0
      ],
      "type": "SCALAR"
    }
  ],
  "asset": {
    "extras": {
      "author": "Adam.Klimo (https://sketchfab.com/Adam.Klimo)",
      "license": "CC-BY-4.0 (http://creativecommons.org/licenses/by/4.0/)",
      "source": "https://sketchfab.com/models/97b8b4e8a83045c5a5673f19d6b21e39",
      "title": "Bowling Ball"
    },
    "generator": "Sketchfab-3.18.7",
    "version": "2.0"
  },
  "bufferViews": [
    {
      "buffer": 0,
      "byteLength": 21840,
      "byteOffset": 0,
      "name": "floatBufferViews",
      "target": 34963
    },
    {
      "buffer": 0,
      "byteLength": 26208,
      "byteOffset": 21840,
      "byteStride": 12,
      "name": "floatBufferViews",
      "target": 34962
    }
  ],
  "buffers": [
    {
      "byteLength": 48048,
      "uri": "scene.bin"
    }
  ],
  "materials": [
    {
      "doubleSided": true,
      "emissiveFactor": [
        0,
        0,
        0
      ],
      "name": "Bowling_Ball",
      "pbrMetallicRoughness": {
        "baseColorFactor": [
          0.59310555460000003,
          0.80000007149999997,
          0.0055256910000000001,
          1
        ],
        "metallicFactor": 0,
        "roughnessFactor": 0.59999999999999998
      }
    },
    {
      "doubleSided": true,
      "emissiveFactor": [
        0,
        0,
        0
      ],
      "name": "Inside_ball",
      "pbrMetallicRoughness": {
        "baseColorFactor": [
          0.085356056700000002,
          0.1024754271,
          0.0231656898,
          1
        ],
        "metallicFactor": 0,
        "roughnessFactor": 0.59999999999999998
      }
    },
    {
      "doubleSided": true,
      "emissiveFactor": [
        0,
        0,
        0
      ],
      "name": "Rings",
      "pbrMetallicRoughness": {
        "baseColorFactor": [
          0.80000007149999997,
          0.61009275910000005,
          0,
          1
        ],
        "metallicFactor": 0,
        "roughnessFactor": 0.59999999999999998
      }
    }
  ],
  "meshes": [
    {
      "name": "Icosphere_0",
      "primitives": [
        {
          "attributes": {
            "NORMAL": 1,
            "POSITION": 0
          },
          "indices": 2,
          "material": 0,
          "mode": 4
        }
      ]
    },
    {
      "name": "Icosphere_1",
      "primitives": [
        {
          "attributes": {
            "NORMAL": 4,
            "POSITION": 3
          },
          "indices": 5,
          "material": 1,
          "mode": 4
        }
      ]
    },
    {
      "name": "Icosphere_2",
      "primitives": [
        {
          "attributes": {
            "NORMAL": 7,
            "POSITION": 6
          },
          "indices": 8,
          "material": 2,
          "mode": 4
        }
      ]
    }
  ],
  "nodes": [
    {
      "children": [
        1
      ],
      "name": "RootNode (gltf orientation matrix)",
      "rotation": [
        -0.70710678118654746,
        -0,
        -0,
        0.70710678118654757
      ]
    },
    {
      "children": [
        2
      ],
      "name": "RootNode (model correction matrix)"
    },
    {
      "children": [
        3,
        5
      ],
      "name": "Root"
    },
    {
      "children": [
        4
      ],
      "matrix": [
        -0.29086000000000006,
        0.95517000000000007,
        -0.05519000000000001,
        0,
        -0.77110000000000001,
        -0.19988000000000003,
        0.60452000000000006,
        0,
        0.56639000000000006,
        0.21839000000000003,
        0.7946700000000001,
        0,
        4.0762500000000008,
        1.00545,
        5.9038600000000008,
        1
      ],
      "name": "Lamp"
    },
    {
      "name": "Lamp"
    },
    {
      "children": [
        6,
        7,
        8
      ],
      "matrix": [
        1,
        0,
        0,
        0,
        0,
        1,
        0,
        0,
        0,
        0,
        1,
        0,
        0,
        0,
        2.2000000000000002,
        1
      ],
      "name": "Icosphere"
    },
    {
      "mesh": 0,
      "name": "Icosphere_0"
    },
    {
      "mesh": 1,
      "name": "Icosphere_1"
    },
    {
      "mesh": 2,
      "name": "Icosphere_2"
    }
  ],
  "scene": 0,
  "scenes": [
    {
      "name": "OSG_Scene",
      "nodes": [
        0
      ]
    }
  ]
}

